# xmcd CD database file
#
# Track frame offsets:
#	150
#	12217
#	30540
#	43470
#	62562
#	78310
#
# Disc length: 1499 seconds
#
# Revision: 0
# Processed by: cddbd v1.5.1PL0 Copyright (c) Steve Scherf et al.
# Submitted via: CDex 1.51
#
DISCID=4305d906
DTITLE=Winnie - First Class Speed Of Light
DYEAR=2003
DGENRE=Pop
TTITLE0=Ruby Tube Tail
TTITLE1=Navy
TTITLE2=Everlasting Girl
TTITLE3=Ocean
TTITLE4=Stain
TTITLE5=Your Answer
EXTD=YEAR: 2003
EXTT0=
EXTT1=
EXTT2=
EXTT3=
EXTT4=
EXTT5=
PLAYORDER=
